<svg width="current" height="current" viewBox="0 0 25 24" fill="none" xmlns="http://www.w3.org/2000/svg">
<rect width="24" height="24" transform="translate(0.578125)" fill="white"/>
<path d="M12.5781 12C13.6615 12 14.7865 11.9125 15.9531 11.7375C17.1198 11.5625 18.2031 11.3167 19.2031 11C19.5365 10.8667 19.849 10.9083 20.1406 11.125C20.4323 11.3417 20.5781 11.625 20.5781 11.975V19.125C20.5781 19.5417 20.4573 19.9208 20.2156 20.2625C19.974 20.6042 19.6615 20.85 19.2781 21C18.3281 21.3167 17.2656 21.5625 16.0906 21.7375C14.9156 21.9125 13.7448 22 12.5781 22C11.4115 22 10.2406 21.9125 9.06563 21.7375C7.89062 21.5625 6.82812 21.3167 5.87813 21C5.49479 20.85 5.18229 20.6042 4.94063 20.2625C4.69896 19.9208 4.57812 19.5417 4.57812 19.125V11.975C4.57812 11.625 4.72396 11.3417 5.01562 11.125C5.30729 10.9083 5.61979 10.8667 5.95312 11C6.95312 11.3167 8.03646 11.5625 9.20312 11.7375C10.3698 11.9125 11.4948 12 12.5781 12ZM12.5781 2C13.6781 2 14.6198 2.39167 15.4031 3.175C16.1865 3.95833 16.5781 4.9 16.5781 6C16.5781 7.1 16.1865 8.04167 15.4031 8.825C14.6198 9.60833 13.6781 10 12.5781 10C11.4781 10 10.5365 9.60833 9.75313 8.825C8.96979 8.04167 8.57812 7.1 8.57812 6C8.57812 4.9 8.96979 3.95833 9.75313 3.175C10.5365 2.39167 11.4781 2 12.5781 2Z" fill="#CACACA"/>
</svg>
