<svg width="current" height="current" viewBox="0 0 16 18" fill="none" xmlns="http://www.w3.org/2000/svg">
<path d="M2 15.75H5V10.75C5 10.4667 5.09583 10.2292 5.2875 10.0375C5.47917 9.84583 5.71667 9.75 6 9.75H10C10.2833 9.75 10.5208 9.84583 10.7125 10.0375C10.9042 10.2292 11 10.4667 11 10.75V15.75H14V6.75L8 2.25L2 6.75V15.75ZM0 15.75V6.75C0 6.43333 0.0708333 6.13333 0.2125 5.85C0.354167 5.56667 0.55 5.33333 0.8 5.15L6.8 0.65C7.15 0.383333 7.55 0.25 8 0.25C8.45 0.25 8.85 0.383333 9.2 0.65L15.2 5.15C15.45 5.33333 15.6458 5.56667 15.7875 5.85C15.9292 6.13333 16 6.43333 16 6.75V15.75C16 16.3 15.8042 16.7708 15.4125 17.1625C15.0208 17.5542 14.55 17.75 14 17.75H10C9.71667 17.75 9.47917 17.6542 9.2875 17.4625C9.09583 17.2708 9 17.0333 9 16.75V11.75H7V16.75C7 17.0333 6.90417 17.2708 6.7125 17.4625C6.52083 17.6542 6.28333 17.75 6 17.75H2C1.45 17.75 0.979167 17.5542 0.5875 17.1625C0.195833 16.7708 0 16.3 0 15.75Z" fill="#CACACA"/>
</svg>
