<svg width="current" height="current" viewBox="0 0 25 22" fill="none" xmlns="http://www.w3.org/2000/svg">
<rect width="24" height="22" transform="translate(0.578125)" fill="white"/>
<path d="M5.57812 21C5.02813 21 4.55729 20.8042 4.16563 20.4125C3.77396 20.0208 3.57812 19.55 3.57812 19V5C3.57812 4.45 3.77396 3.97917 4.16563 3.5875C4.55729 3.19583 5.02813 3 5.57812 3H9.77813C9.99479 2.4 10.3573 1.91667 10.8656 1.55C11.374 1.18333 11.9448 1 12.5781 1C13.2115 1 13.7823 1.18333 14.2906 1.55C14.799 1.91667 15.1615 2.4 15.3781 3H19.5781C20.1281 3 20.599 3.19583 20.9906 3.5875C21.3823 3.97917 21.5781 4.45 21.5781 5V19C21.5781 19.55 21.3823 20.0208 20.9906 20.4125C20.599 20.8042 20.1281 21 19.5781 21H5.57812ZM5.57812 19H19.5781V5H5.57812V19ZM12.5781 4.25C12.7948 4.25 12.974 4.17917 13.1156 4.0375C13.2573 3.89583 13.3281 3.71667 13.3281 3.5C13.3281 3.28333 13.2573 3.10417 13.1156 2.9625C12.974 2.82083 12.7948 2.75 12.5781 2.75C12.3615 2.75 12.1823 2.82083 12.0406 2.9625C11.899 3.10417 11.8281 3.28333 11.8281 3.5C11.8281 3.71667 11.899 3.89583 12.0406 4.0375C12.1823 4.17917 12.3615 4.25 12.5781 4.25ZM8.07812 17H9.27813C9.41146 17 9.54063 16.9708 9.66563 16.9125C9.79063 16.8542 9.89479 16.7833 9.97813 16.7L15.6781 11.05L13.5281 8.9L7.87813 14.55C7.77813 14.65 7.70313 14.7625 7.65313 14.8875C7.60313 15.0125 7.57812 15.1417 7.57812 15.275V16.5C7.57812 16.6333 7.62813 16.75 7.72813 16.85C7.82812 16.95 7.94479 17 8.07812 17ZM16.3781 10.35L17.4281 9.25C17.5281 9.15 17.5781 9.03333 17.5781 8.9C17.5781 8.76667 17.5281 8.65 17.4281 8.55L16.0281 7.15C15.9281 7.05 15.8115 7 15.6781 7C15.5448 7 15.4281 7.05 15.3281 7.15L14.2281 8.2L16.3781 10.35Z" fill="#CACACA"/>
</svg>
