<svg width="current" height="current" viewBox="0 0 18 18" fill="none" xmlns="http://www.w3.org/2000/svg" preserveAspectRatio="none">
<path d="M12.7578 11.2578H11.9678L11.6878 10.9878C12.6678 9.84781 13.2578 8.36781 13.2578 6.75781C13.2578 3.16781 10.3478 0.257812 6.75781 0.257812C3.16781 0.257812 0.257812 3.16781 0.257812 6.75781C0.257812 10.3478 3.16781 13.2578 6.75781 13.2578C8.36781 13.2578 9.84781 12.6678 10.9878 11.6878L11.2578 11.9678V12.7578L16.2578 17.7478L17.7478 16.2578L12.7578 11.2578ZM6.75781 11.2578C4.26781 11.2578 2.25781 9.24781 2.25781 6.75781C2.25781 4.26781 4.26781 2.25781 6.75781 2.25781C9.24781 2.25781 11.2578 4.26781 11.2578 6.75781C11.2578 9.24781 9.24781 11.2578 6.75781 11.2578Z" fill="current"/>
</svg>
